<svg viewBox="0 0 48 48" xmlns="http://www.w3.org/2000/svg"><g id="10-editing,-pencil,-web,-writing" fill="none" fill-rule="evenodd"><path id="Shape" d="m24 5c.5522847 0 1 .44771525 1 1 0 .51283584-.4056479 1-1 1h-14c-1.59768088 0-3 1.30443444-3 3v28c0 1.5976809 1.26709049 3 3 3h28c1.5976809 0 3-1.2774908 3-3v-14c0-.5522847.4477153-1 1-1 .5128358 0 1 .433768 1 1v14c0 2.6887547-2.1927803 5-5 5h-28c-2.6887547 0-5-2.1775175-5-5v-28c0-2.6887547 2.15521741-5 5-5zm8.8284271 1.6862915c1.8934511-1.89345111 5.0669756-2.0070401 7.0710678 0l1.4142136 1.41421356c1.8934511 1.89345111 1.9945549 5.05818044 0 7.07106784l-12.7279221 12.727922c-.1323344.1323345-.3885153.2887865-.616571.2887865l-7.7781746.7071067c-.5830643.0530059-1.1462947-.4273754-1.0903781-1.0864289l.7110559-7.7781746c.0169437-.1863806.1269338-.4471091.2887865-.616571zm-.7074271 3.5347085-10.3496016 10.3493331-.5656854 6.2239539 6.2218325-.5663925 10.3504545-10.3498945zm6.3642814-2.12049494c-1.12471-1.12470996-3.0317212-1.23107285-4.2426407 0l-.7076407.70649494 5.657 5.657.7074949-.7066407c1.0826589-1.0826588 1.2650688-2.9170409 0-4.24264067z" fill="rgb(0,0,0)" fill-rule="nonzero"/></g></svg>