<svg width="132" height="40" viewBox="0 0 132 40" fill="none" xmlns="http://www.w3.org/2000/svg">
<path d="M37.9638 16.6C37.9638 19.992 35.1478 23 31.5638 23H21.9638C18.4758 23 15.6598 20.216 15.5638 16.6H18.7638C18.7638 18.36 20.2038 19.8 21.9638 19.8H31.5638C33.3238 19.8 34.7638 18.36 34.7638 16.6C34.7638 14.84 33.3238 13.4 31.5638 13.4H21.9638C18.5398 13.4 15.5638 10.616 15.5638 7C15.5638 3.608 18.3798 0.599998 21.9638 0.599998H31.5638C34.9878 0.599998 37.8678 3.448 37.9638 7H34.7638C34.7638 5.24 33.3238 3.8 31.5638 3.8H21.9638C20.2038 3.8 18.7638 5.24 18.7638 7C18.7638 8.76 20.2038 10.2 21.9638 10.2H31.5638C34.9238 10.2 37.9638 13.048 37.9638 16.6ZM60.0526 10.2V7C60.0526 5.24 58.6126 3.8 56.8526 3.8H44.0526V13.4H56.8526C58.6126 13.4 60.0526 11.96 60.0526 10.2ZM63.2526 7V10.2C63.2526 13.592 60.4366 16.6 56.8526 16.6H44.0526V23H40.8526V0.599998H56.8526C60.2766 0.599998 63.1566 3.448 63.2526 7ZM81.8213 3.8H72.2213C70.4613 3.8 69.0213 5.24 69.0213 7V13.4H85.0213V7C85.0213 5.24 83.5813 3.8 81.8213 3.8ZM88.2213 7V23H85.0213V16.6H69.0213V23H65.8213V7C65.8213 3.608 68.6373 0.599998 72.2213 0.599998H81.8213C85.2453 0.599998 88.1253 3.448 88.2213 7ZM94.6151 0.599998V19.8H113.815V23H91.4151V0.599998H94.6151ZM115.415 23V0.599998H118.615V23H115.415Z" fill="white"/>
<path d="M0.64 36.328L7.04 29.928L11.84 34.728L15.968 30.6H16.768L18.24 32.072V32.872L11.84 39.272L7.04 34.472L2.912 38.6H2.112L0.64 37.128V36.328ZM19.515 36.328L25.915 29.928L30.715 34.728L34.843 30.6H35.643L37.115 32.072V32.872L30.715 39.272L25.915 34.472L21.787 38.6H20.987L19.515 37.128V36.328ZM38.39 36.328L44.79 29.928L49.59 34.728L53.718 30.6H54.518L55.99 32.072V32.872L49.59 39.272L44.79 34.472L40.662 38.6H39.862L38.39 37.128V36.328ZM57.265 36.328L63.665 29.928L68.465 34.728L72.593 30.6H73.393L74.865 32.072V32.872L68.465 39.272L63.665 34.472L59.537 38.6H58.737L57.265 37.128V36.328ZM76.14 36.328L82.54 29.928L87.34 34.728L91.468 30.6H92.268L93.74 32.072V32.872L87.34 39.272L82.54 34.472L78.412 38.6H77.612L76.14 37.128V36.328ZM95.015 36.328L101.415 29.928L106.215 34.728L110.343 30.6H111.143L112.615 32.072V32.872L106.215 39.272L101.415 34.472L97.287 38.6H96.487L95.015 37.128V36.328ZM113.89 36.328L120.29 29.928L125.09 34.728L129.218 30.6H130.018L131.49 32.072V32.872L125.09 39.272L120.29 34.472L116.162 38.6H115.362L113.89 37.128V36.328Z" fill="white"/>
</svg>
