<svg id="Layer_1" enable-background="new 0 0 512 512" viewBox="0 0 512 512" xmlns="http://www.w3.org/2000/svg"><path d="m419 256c0 7.18-5.82 13-13 13h-137v137c0 7.18-5.82 13-13 13s-13-5.82-13-13v-137h-136.999c-7.18 0-13-5.82-13-13s5.82-13 13-13h136.999v-136.999c0-7.18 5.82-13 13-13s13 5.82 13 13v136.999h137c7.18 0 13 5.82 13 13zm93-167.5v335.001c0 48.799-39.701 88.499-88.5 88.499h-335c-48.799 0-88.5-39.7-88.5-88.499v-335.001c0-48.799 39.701-88.5 88.5-88.5h335c48.799 0 88.5 39.701 88.5 88.5zm-26 0c0-34.463-28.037-62.5-62.5-62.5h-335c-34.463 0-62.5 28.037-62.5 62.5v335.001c0 34.462 28.037 62.499 62.5 62.499h335c34.463 0 62.5-28.037 62.5-62.499z"/></svg>